<svg version="1.1"
	id="block"
	xmlns="http://www.w3.org/2000/svg"
	xmlns:xlink="http://www.w3.org/1999/xlink"
	x="0px" y="0px"
	width="50px" height="50px"
	viewBox="0 0 50 50"
	xml:space="preserve">
		<g fill="#2A94D6">
			<path d="M34.768,14.652c0-0.939-2.887-1.879-5.67-2.481c-2.113-0.458-1.791-3.23-1.814-4.542c-0.301,0.479-1.211,0.83-2.283,0.83
				c-1.074,0-1.981-0.351-2.284-0.831c-0.023,1.312,0.3,4.084-1.813,4.542c-2.782,0.604-5.671,1.542-5.671,2.483
				c0,3.538,4.142,11.587,4.142,15.712c0,3.97-4.355,6.129-4.04,16.463c0,0,4.098,1.694,9.664,1.694c5.57,0,9.667-1.694,9.667-1.694
				c0.318-10.334-4.039-12.493-4.039-16.463C30.629,26.241,34.768,18.19,34.768,14.652"/>
			<path d="M25.826,5.688c0.016-0.025,0.025-0.052,0.025-0.081c0-0.153-0.221-0.557-0.532-0.744l0.062-1
				c0.357-0.377,0.679-1.14,0.679-1.501c0-0.487-0.475-0.884-1.061-0.884c-0.586,0-1.061,0.396-1.061,0.884
				c0,0.361,0.324,1.124,0.679,1.501l0.062,1c-0.312,0.188-0.531,0.59-0.531,0.744c0,0.027,0.01,0.055,0.024,0.081
				c-0.679,0.264-1.149,0.797-1.149,1.189c0,0.538,0.886,0.974,1.976,0.974c1.09,0,1.977-0.436,1.977-0.974
				C26.977,6.484,26.504,5.952,25.826,5.688"/>
		</g>
</svg>
