<svg version="1.1"
  id="needle"
  xmlns="http://www.w3.org/2000/svg"
  xmlns:xlink="http://www.w3.org/1999/xlink"
  x="0px" y="0px"
  width="50px" height="50px"
  viewBox="-3.5 38.5 50 50"
  xml:space="preserve">
    <g fill="#4EB1CB">
    	<path d="M26.82,72.897c-0.065-0.065-0.065-0.131-0.065-0.131L-2.521,43.557c-0.329-0.394-0.263,0.394-0.263,0.394l27.175,31.178
    		l0.13,0.132C26.754,76.968,28.723,75.063,26.82,72.897z M24.917,74.604c-0.525-0.655-1.444-1.969-1.772-2.757
    		c-0.066-0.196,0.065-0.59,0.524-0.525c0,0,2.102,1.445,2.626,2.036C27.082,74.342,25.573,75.522,24.917,74.604z"/>
    	<path fill="none" stroke="#4EB1CB" stroke-width="0.7975" d="M45.789,77.427c0,0-10.698-13.784-24.483,0
    		c-13.784,13.784-21.267,0-21.267,0"/>
    </g>
</svg>
