<svg version="1.1"
	id="scissors"
	xmlns="http://www.w3.org/2000/svg"
	xmlns:xlink="http://www.w3.org/1999/xlink"
	x="0px" y="0px"
	width="50px" height="50px"
	viewBox="-3.516 38.5 50 50"
	xml:space="preserve">
		<g fill="#F3AE4E">
			<path d="M27.583,72.754c3.34,2.605,4.274,7.348,2.137,11.155c-2.204,3.739-7.414,5.677-11.754,3.272
				c-4.008-2.34-5.41-7.614-2.94-11.823c2.405-3.672,9.752-11.755,9.752-11.755l0.467-3.872l-3.807,0.532
				c0,0-11.421,9.552-11.822,9.753c-1.402,0.801-2.938,1.202-4.408,1.202c-2.939,0-5.744-1.537-7.347-4.209
				c-2.338-4.074-0.868-9.283,3.272-11.688c3.673-2.004,8.283-1.336,11.154,2.138c1.803,2.137,3.206,1.269,14.894-3.606l12.291-15.095
				h0.733l-5.81,11.821l11.822-5.743v0.733L31.124,57.792C26.514,69.014,25.379,71.018,27.583,72.754z M9.684,60.131
				c-1.269-2.339-4.342-3.073-6.813-1.67c-2.137,1.201-3.339,4.274-1.87,6.679c0.734,1.403,2.472,2.405,4.208,2.405
				c0.935,0,1.803-0.2,2.605-0.669C10.218,65.473,11.153,62.402,9.684,60.131z M24.845,75.292c-2.271-1.336-5.41-0.534-6.813,1.938
				c-1.269,2.137-0.734,5.343,1.737,6.745c2.337,1.269,5.343,0.535,6.745-1.937c0.668-1.069,0.869-2.471,0.602-3.808
				C26.782,76.962,25.98,75.894,24.845,75.292z M28.919,57.192c0.601,0,1.135-0.533,1.135-1.068c0-0.601-0.534-1.136-1.135-1.136
				c-0.602,0-1.136,0.535-1.136,1.136C27.784,56.659,28.318,57.192,28.919,57.192z"/>
		</g>
</svg>
