<svg version="1.1"
	id="sewing-machine"
	xmlns="http://www.w3.org/2000/svg"
	xmlns:xlink="http://www.w3.org/1999/xlink"
	x="0px" y="0px"
	width="50px" height="50px"
	viewBox="-3.5 38.5 50 50"
	xml:space="preserve">
		<g fill="#4AB471">
			<path d="M43.14,64.246h1.99c0.549,0,0.995-0.445,0.995-0.995V49.322c0-0.549-0.446-0.995-0.995-0.995h-1.99
				c-0.549,0-0.995,0.446-0.995,0.995v2.488h-1.609c-0.943-1.292-2.404-1.493-3.387-1.493c-0.12,0-0.253,0-0.394,0
				c0-0.205-0.168-0.498-0.373-0.498h-0.622v-7.462h0.622c0.205,0,0.373-0.292,0.373-0.498s-0.168-0.498-0.373-0.498h-5.224
				c-0.205,0-0.373,0.292-0.373,0.498s0.168,0.498,0.373,0.498h0.622v7.462h-0.622c-0.205,0-0.373,0.292-0.373,0.498
				c0,0.007,0.003,0.015,0.004,0.022c-6.585,0.113-13.287,1.009-19.176,1.009c-3.895,0-6.618-2.903-6.78-5.457V45.33
				c0-0.543-0.44-0.983-0.983-0.983h-4.002c-0.543,0-0.984,0.44-0.984,0.983v22.908c0,0.543,0.44,0.982,0.984,0.982H1.44l0.18,5.297
				c0.003,0.113,0.099,0.206,0.212,0.206s0.208-0.093,0.213-0.206l0.179-5.297h1.626c0.543,0,0.983-0.439,0.983-0.982v-2.204
				c0-1.576,1.992-7.064,9.566-7.064c6.377,0,13.4,0,13.4,6.521c0,5.15-1.184,8.457-1.724,9.701H-2.287
				c-0.463,0-0.838,0.375-0.838,0.838v8.771c0,0.462,0.375,0.837,0.838,0.837h47.575c0.463,0,0.838-0.375,0.838-0.838v-8.771
				c0-0.463-0.375-0.838-0.838-0.838h-4.368c-0.437-1.546-1.179-4.874-1.179-9.701c0-2.192,0.184-3.64,0.431-4.727h1.974v2.487
				C42.145,63.801,42.59,64.246,43.14,64.246z"/>
		</g>
</svg>
