<svg version="1.1"
  id="thimble"
  xmlns="http://www.w3.org/2000/svg"
  xmlns:xlink="http://www.w3.org/1999/xlink"
  x="0px" y="0px"
	width="50px" height="50px"
  viewBox="-3.5 38.5 50 50"
  xml:space="preserve">
    <g fill="#717ECD">
    	<path d="M21.77,79.658L21.77,79.658c-0.08,0-0.24,0-0.318,0c-0.08,0-0.24,0-0.32,0l0,0c-7.172,0.08-13.867-0.637-17.214-1.115
    		c-1.196-0.158-2.391,0.639-2.55,1.914l-0.398,2.629c-0.159,1.195,0.558,2.631,1.753,2.947c9.086,3.031,28.453,3.031,37.537,0
    		c1.196-0.396,1.992-1.752,1.753-2.947l-0.398-2.629c-0.24-1.195-1.355-2.072-2.63-1.914C35.636,79.021,28.942,79.738,21.77,79.658z
    		"/>
    	<path d="M8.46,42.758l-1.913,13.07c0.16-0.08,0.399-0.16,0.638-0.16c0.797,0,1.355,0.639,1.355,1.355
    		c0,0.797-0.638,1.355-1.355,1.355c-0.398,0-0.717-0.158-0.957-0.398l-1.115,7.414c0.079,0,0.159,0,0.239,0
    		c0.797,0,1.354,0.637,1.354,1.354s-0.638,1.354-1.354,1.354c-0.239,0-0.399-0.078-0.558-0.158L3.359,77.27c0.08,0,0.239,0,0.319,0
    		c0.239,0,0.558,0.076,0.797,0.076c0-0.156-0.08-0.236-0.08-0.396c0-0.797,0.638-1.355,1.355-1.355s1.355,0.639,1.355,1.355
    		c0,0.24-0.08,0.477-0.159,0.637c2.231,0.24,5.021,0.479,8.049,0.639c-0.08-0.24-0.16-0.398-0.16-0.639
    		c0-0.797,0.638-1.354,1.354-1.354c0.797,0,1.355,0.637,1.355,1.354c0,0.24-0.079,0.559-0.239,0.719c0.876,0,1.753,0,2.63,0l0,0
    		h1.036h1.036l0,0c0.08,0,0.24,0,0.319,0c1.036,0,1.992,0,3.028-0.08c-0.16-0.24-0.24-0.479-0.24-0.719
    		c0-0.797,0.639-1.354,1.355-1.354c0.796,0,1.355,0.637,1.355,1.354c0,0.24-0.08,0.4-0.16,0.639c2.948-0.16,5.579-0.398,7.651-0.639
    		c-0.08-0.16-0.16-0.396-0.16-0.637c0-0.797,0.637-1.355,1.355-1.355c0.796,0,1.354,0.639,1.354,1.355c0,0.08,0,0.24-0.08,0.32
    		c0.159,0,0.238,0,0.398-0.08c0.32-0.08,0.718,0,1.036,0l-1.116-8.371c-0.08,0-0.16,0-0.239,0c-0.797,0-1.354-0.637-1.354-1.352
    		c0-0.719,0.557-1.355,1.274-1.355l-1.036-7.971c-0.08,0-0.16,0-0.238,0c-0.797,0-1.355-0.637-1.355-1.355
    		c0-0.717,0.558-1.354,1.275-1.354l-1.675-12.912c-0.238-2.072-2.152-3.746-4.224-3.746H12.763
    		C10.691,39.093,8.779,40.766,8.46,42.758z M21.451,74.08c-0.798,0-1.355-0.639-1.355-1.355c0-0.795,0.637-1.354,1.355-1.354
    		c0.796,0,1.354,0.637,1.354,1.354S22.248,74.08,21.451,74.08z M32.21,74.08c-0.797,0-1.355-0.639-1.355-1.355
    		c0-0.795,0.637-1.354,1.355-1.354c0.796,0,1.354,0.637,1.354,1.354C33.643,73.441,33.006,74.08,32.21,74.08z M32.21,63.879
    		c-0.797,0-1.355-0.637-1.355-1.355c0-0.797,0.637-1.355,1.355-1.355c0.796,0,1.354,0.639,1.354,1.355
    		C33.643,63.242,33.006,63.879,32.21,63.879z M33.643,52.164c0,0.797-0.637,1.354-1.354,1.354c-0.797,0-1.354-0.637-1.354-1.354
    		c0-0.799,0.637-1.357,1.354-1.357C33.006,50.807,33.643,51.445,33.643,52.164z M30.854,40.447c0.796,0,1.355,0.637,1.355,1.355
    		c0,0.797-0.639,1.355-1.355,1.355c-0.796,0-1.355-0.638-1.355-1.355C29.499,41.084,30.058,40.447,30.854,40.447z M28.942,67.387
    		c0,0.795-0.639,1.352-1.355,1.352c-0.716,0-1.355-0.637-1.355-1.352c0-0.799,0.639-1.355,1.355-1.355
    		C28.304,65.951,28.942,66.588,28.942,67.387z M26.71,45.468c0.797,0,1.354,0.638,1.354,1.355c0,0.797-0.638,1.354-1.354,1.354
    		c-0.797,0-1.355-0.638-1.355-1.354C25.355,46.026,25.913,45.468,26.71,45.468z M26.71,56.068c0.797,0,1.354,0.637,1.354,1.355
    		c0,0.797-0.638,1.355-1.354,1.355c-0.797,0-1.355-0.639-1.355-1.355C25.355,56.627,25.913,56.068,26.71,56.068z M23.443,62.283
    		c0,0.799-0.638,1.355-1.355,1.355c-0.797,0-1.355-0.637-1.355-1.355c0-0.795,0.639-1.354,1.355-1.354
    		C22.805,60.93,23.443,61.566,23.443,62.283z M22.805,52.164c0,0.797-0.638,1.354-1.354,1.354c-0.798,0-1.355-0.637-1.355-1.354
    		c0-0.799,0.637-1.357,1.355-1.357C22.248,50.807,22.805,51.445,22.805,52.164z M20.972,40.447c0.798,0,1.355,0.637,1.355,1.355
    		c0,0.797-0.638,1.355-1.355,1.355c-0.796,0-1.354-0.638-1.354-1.355C19.618,41.084,20.255,40.447,20.972,40.447z M16.908,69.139
    		c-0.797,0-1.355-0.637-1.355-1.355c0-0.797,0.637-1.354,1.355-1.354c0.797,0,1.355,0.637,1.355,1.354
    		C18.263,68.502,17.625,69.139,16.908,69.139z M18.183,57.023c0,0.797-0.638,1.355-1.354,1.355c-0.797,0-1.355-0.639-1.355-1.355
    		c0-0.795,0.638-1.355,1.355-1.355C17.545,55.668,18.183,56.307,18.183,57.023z M16.27,45.468c0.797,0,1.355,0.638,1.355,1.355
    		c0,0.797-0.638,1.354-1.355,1.354c-0.797,0-1.355-0.638-1.355-1.354C14.915,46.026,15.553,45.468,16.27,45.468z M11.647,73.682
    		c-0.797,0-1.355-0.639-1.355-1.355c0-0.797,0.638-1.355,1.355-1.355c0.797,0,1.355,0.639,1.355,1.355
    		C13.002,73.123,12.365,73.682,11.647,73.682z M11.647,63.879c-0.797,0-1.355-0.637-1.355-1.355c0-0.797,0.638-1.355,1.355-1.355
    		c0.797,0,1.355,0.639,1.355,1.355C13.002,63.242,12.365,63.879,11.647,63.879z M11.647,53.119c-0.797,0-1.355-0.639-1.355-1.355
    		c0-0.797,0.638-1.354,1.355-1.354c0.797,0,1.355,0.638,1.355,1.354S12.365,53.119,11.647,53.119z M11.647,43.635
    		c-0.797,0-1.355-0.638-1.355-1.355c0-0.797,0.638-1.355,1.355-1.355c0.797,0,1.355,0.638,1.355,1.355
    		C13.002,42.998,12.365,43.635,11.647,43.635z"/>
    </g>
</svg>
