<svg version="1.1"
	id="thread"
	xmlns="http://www.w3.org/2000/svg"
	xmlns:xlink="http://www.w3.org/1999/xlink"
	x="0px" y="0px"
	width="50px" height="50px"
	viewBox="-3.5 38.5 50 50"
	xml:space="preserve">
		<g fill="#F2CA27">
			<g >
				<g>
					<path d="M1.579,83.621v1.935c0,1.172,4.164,2.125,9.295,2.125c5.132,0,9.295-0.953,9.295-2.125V83.55
						c-2.228,0.627-5.624,1.026-9.431,1.026C7.08,84.576,3.808,84.206,1.579,83.621z"/>
					<path d="M10.738,44.431c4.78,0,8.659-0.885,8.659-1.979c0-0.685-1.524-1.289-3.838-1.643v1.3c0,1.318-3.903,1.384-4.686,1.384
						c-0.784,0-4.688-0.067-4.688-1.384v-1.338c-2.462,0.35-4.106,0.971-4.106,1.681C2.08,43.546,5.956,44.431,10.738,44.431z"/>
					<path d="M10.874,43.086c2.363,0,4.278-0.437,4.278-0.978V40.08c0,0.541-1.915,0.978-4.278,0.978s-4.28-0.437-4.28-0.978v2.029
						C6.594,42.649,8.511,43.086,10.874,43.086z"/>
					<path d="M10.874,40.739c2.363,0,4.278-0.438,4.278-0.977c0-0.541-1.915-0.979-4.278-0.979s-4.28,0.438-4.28,0.979
						C6.594,40.3,8.511,40.739,10.874,40.739z"/>
					<path d="M11.225,77.317c4.503-1.234,7.793-2.705,9.616-3.896c-0.361,0.033-0.746,0.059-1.175,0.059
						c-2.378,0-5.729-0.523-9.301-1.501c-4.479-1.229-8.818-3.058-10.504-4.745l-1.028,11.122c0.04,0.031,0.074,0.065,0.127,0.095
						C0.27,79.201,4.904,79.053,11.225,77.317z"/>
					<path d="M2.725,56.98c-0.312,0-0.605-0.011-0.879-0.029c1.558,0.967,4.223,2.161,8.042,3.21c5.402,1.479,9.48,1.611,10.577,0.987
						c0.089-0.051,0.2-0.132,0.228-0.228l0.214,0.059c0.045-0.051,0.081-0.098,0.114-0.145L20.185,51.8
						c-2.011,1.507-5.957,2.971-8.989,3.802C7.901,56.504,4.879,56.98,2.725,56.98z"/>
					<path d="M0.177,66.418c1.139,0.649,5.368,0.515,10.966-1.021c3.535-0.97,6.264-2.122,7.983-3.113
						c-0.304,0.025-0.627,0.041-0.979,0.041c-2.155,0-5.179-0.475-8.474-1.378c-2.987-0.82-6.85-2.254-8.884-3.738l-0.822,8.888
						c0.04,0.096,0.104,0.2,0.193,0.312C0.166,66.41,0.172,66.415,0.177,66.418z"/>
					<path d="M10.982,54.815c4.081-1.118,6.84-2.406,8.342-3.405c-0.322,0.033-0.666,0.057-1.052,0.057
						c-1.996,0-4.796-0.44-7.844-1.276c-2.979-0.817-6.899-2.294-8.64-3.786l-0.887,9.58C2.46,56.38,6.199,56.127,10.982,54.815z"/>
					<path d="M22.186,73.405c-1.956,1.688-6.284,3.475-10.744,4.695c-3.763,1.034-7.292,1.581-9.795,1.581
						c-0.597,0-1.119-0.037-1.588-0.099c1.726,0.975,4.405,2.096,7.856,3.044c1.862,0.51,3.568,0.862,5.065,1.087
						c5.638-0.24,9.908-1.367,9.908-2.727L22.186,73.405z"/>
					<path d="M2.566,67.6c-0.354,0-0.681-0.017-0.986-0.04c1.762,1.121,4.857,2.499,8.999,3.636c5.764,1.581,10.153,1.76,11.507,1.134
						l-0.97-10.468c-1.713,1.552-5.677,3.202-9.76,4.321C7.984,67.106,4.816,67.6,2.566,67.6z"/>
					<path d="M7.699,83.411c-3.551-0.975-7.021-2.349-8.99-3.712l-0.119,1.288c0,1.392,4.485,2.54,10.327,2.739
						C8.516,83.629,8.108,83.524,7.699,83.411z"/>
					<path d="M10.644,49.406c4.542,1.247,8.064,1.459,9.418,1.051l-0.664-7.191c0,1.094-3.879,1.979-8.659,1.979
						c-4.782,0-8.658-0.885-8.658-1.979l-0.197,2.125C2.605,46.297,5.484,47.991,10.644,49.406z"/>
				</g>
				<g>
					<path d="M36.587,54.923c2.362,0,4.278-0.439,4.278-0.979v-2.029c0,0.541-1.916,0.979-4.278,0.979c-2.363,0-4.28-0.438-4.28-0.979
						v2.029C32.306,54.483,34.223,54.923,36.587,54.923z"/>
					<ellipse cx="36.587" cy="51.597" rx="4.278" ry="0.978"/>
					<path d="M32.306,86.358v0.88c0,0.54,1.917,0.979,4.28,0.979s4.277-0.438,4.277-0.979v-0.88c-1.23,0.184-2.699,0.292-4.277,0.292
						C35.003,86.65,33.537,86.542,32.306,86.358z"/>
					<path d="M30.5,72.229c-0.414,0-0.779-0.025-1.103-0.071c1.213,0.844,3.518,1.908,6.719,2.787c4.189,1.148,7.29,1.27,8.293,0.805
						v-7.771c-1.332,1.139-4.306,2.365-7.267,3.178C34.587,71.854,32.192,72.229,30.5,72.229z"/>
					<path d="M30.5,63.977c-0.414,0-0.779-0.024-1.103-0.071c1.213,0.845,3.518,1.908,6.719,2.788
						c3.991,1.095,7.001,1.258,8.145,0.868c0.057-0.053,0.102-0.102,0.149-0.151v-7.681c-1.332,1.137-4.309,2.362-7.267,3.175
						C34.587,63.605,32.192,63.977,30.5,63.977z"/>
					<path d="M37.031,70.747c2.991-0.818,5.194-1.802,6.46-2.617c-0.258,0.025-0.535,0.043-0.847,0.043
						c-1.689,0-4.085-0.372-6.642-1.073c-2.938-0.808-5.896-2.022-7.24-3.153v7.62C29.796,72.019,32.881,71.886,37.031,70.747z"/>
					<path d="M37.031,62.497c3.438-0.943,5.845-2.103,6.971-2.973c-0.375,0.074-0.826,0.115-1.356,0.115
						c-1.689,0-4.085-0.371-6.642-1.072c-2.935-0.806-5.891-2.019-7.24-3.148v7.896C29.796,63.766,32.881,63.634,37.031,62.497z"/>
					<path d="M36.587,56.694c-2.474,0-4.677-0.264-6.109-0.672c1.313,0.7,3.218,1.472,5.639,2.138
						c4.187,1.147,7.288,1.271,8.293,0.808v-4.062C44.409,55.896,40.905,56.694,36.587,56.694z"/>
					<path d="M37.031,79.104c3.148-0.864,5.432-1.907,6.659-2.745c-0.31,0.039-0.652,0.065-1.045,0.065
						c-1.689,0-4.085-0.374-6.642-1.075c-2.939-0.806-5.896-2.021-7.24-3.152v7.726C29.796,80.376,32.881,80.244,37.031,79.104z"/>
					<path d="M36.004,83.707c-2.939-0.806-5.896-2.021-7.24-3.151v3.753c0,0.988,3.504,1.789,7.823,1.789
						c3.889,0,7.105-0.649,7.711-1.5c-0.417,0.122-0.976,0.184-1.652,0.184C40.953,84.781,38.561,84.41,36.004,83.707z"/>
					<path d="M30.5,80.587c-0.414,0-0.779-0.026-1.103-0.072c1.213,0.844,3.518,1.908,6.719,2.786
						c4.186,1.146,7.288,1.272,8.293,0.807v-7.765c-1.335,1.135-4.312,2.359-7.267,3.169C34.587,80.215,32.192,80.587,30.5,80.587z"/>
					<path d="M36.587,56.236c4.318,0,7.822-0.803,7.822-1.789c0-0.585-1.234-1.103-3.138-1.429v0.925c0,1.319-3.903,1.386-4.686,1.386
						c-0.783,0-4.688-0.066-4.688-1.386v-0.925c-1.9,0.326-3.136,0.844-3.136,1.429C28.763,55.435,32.266,56.236,36.587,56.236z"/>
				</g>
			</g>
		</g>
</svg>
